<?xml version="1.0" standalone="no"?>
<!DOCTYPE svg PUBLIC "-//W3C//DTD SVG 20010904//EN"
 "http://www.w3.org/TR/2001/REC-SVG-20010904/DTD/svg10.dtd">
<svg version="1.0" xmlns="http://www.w3.org/2000/svg"
 width="1312.000000pt" height="1270.000000pt" viewBox="0 0 1312.000000 1270.000000"
 preserveAspectRatio="xMidYMid meet">

<g transform="translate(0.000000,1270.000000) scale(0.100000,-0.100000)"
fill="#000000" stroke="none">
<path d="M4581 11674 c-33 -28 -40 -63 -20 -107 10 -21 -15 -69 -249 -473
l-259 -449 -39 -6 c-24 -4 -46 -16 -59 -33 l-21 -26 -518 0 -517 0 -26 30
c-64 77 -190 -4 -141 -91 15 -26 12 -32 -243 -475 -254 -439 -260 -449 -294
-455 -67 -11 -100 -70 -72 -126 14 -28 11 -35 -247 -480 -252 -437 -262 -453
-291 -453 -61 -1 -95 -57 -71 -115 l15 -34 -259 -448 -259 -448 -37 -6 c-47
-8 -74 -40 -74 -89 0 -45 25 -71 76 -79 35 -6 39 -12 294 -454 l259 -448 -15
-34 c-12 -30 -12 -40 0 -69 l14 -34 -259 -448 c-254 -441 -259 -449 -294 -455
-50 -8 -75 -35 -75 -79 0 -49 27 -81 74 -89 l38 -6 259 -447 258 -448 -14 -35
c-25 -59 9 -114 70 -115 30 0 39 -13 292 -453 257 -446 261 -452 246 -480 -28
-56 5 -115 72 -126 35 -6 40 -13 294 -454 256 -445 259 -449 243 -476 -49 -87
77 -168 141 -91 l26 30 517 0 518 0 21 -26 c14 -17 35 -29 60 -33 l39 -6 258
-445 c186 -321 256 -451 252 -465 -4 -11 -8 -36 -11 -56 -4 -31 0 -39 27 -62
43 -37 75 -35 116 8 l33 35 520 0 c512 0 520 0 526 -20 9 -28 61 -53 94 -45
31 8 61 33 61 52 0 11 93 13 530 13 437 0 530 -2 530 -13 0 -19 30 -44 61 -52
33 -8 85 17 94 45 6 20 14 20 526 20 l520 0 33 -35 c40 -42 73 -45 115 -9 33
28 40 63 20 107 -10 21 15 69 249 473 l259 449 39 6 c24 4 46 16 59 33 l21 26
518 0 517 0 26 -30 c64 -77 190 4 141 91 -15 26 -12 32 243 475 254 439 260
449 294 455 67 11 100 70 72 126 -14 28 -11 35 247 480 252 437 262 453 291
453 61 1 95 57 71 115 l-15 34 259 448 259 448 37 6 c47 8 74 40 74 89 0 45
-25 71 -76 79 -35 6 -39 12 -294 454 l-259 448 15 34 c12 30 12 40 0 69 l-14
34 259 448 c254 441 259 449 294 455 50 8 75 35 75 79 0 49 -27 81 -74 89
l-38 6 -259 447 -258 448 14 35 c25 59 -9 114 -70 115 -30 0 -39 13 -292 453
-257 446 -261 452 -246 480 28 56 -5 115 -72 126 -35 6 -40 13 -294 454 -256
445 -259 449 -243 476 49 87 -77 168 -141 91 l-26 -30 -517 0 -518 0 -21 26
c-14 17 -35 29 -60 33 l-39 6 -258 445 c-186 321 -256 451 -252 465 4 11 8 36
11 56 4 31 0 39 -27 62 -43 37 -75 35 -116 -8 l-33 -35 -520 0 c-512 0 -520 0
-526 20 -9 28 -61 53 -94 45 -31 -8 -61 -33 -61 -52 0 -11 -93 -13 -530 -13
-437 0 -530 2 -530 13 0 19 -30 44 -61 52 -33 8 -85 -17 -94 -45 -6 -20 -14
-20 -526 -20 l-520 0 -33 35 c-40 42 -73 45 -115 9z m1197 -104 c7 -12 11 -24
9 -28 -2 -4 -120 -208 -262 -454 -237 -414 -259 -448 -284 -448 -24 0 -47 37
-287 453 -246 427 -260 453 -246 475 l14 22 522 0 c514 0 521 0 534 -20z
m1219 -3 c9 -19 -22 -79 -251 -475 -237 -410 -263 -452 -287 -452 -23 0 -49
42 -286 452 -230 399 -260 455 -250 475 l10 23 527 0 527 0 10 -23z m1215 -1
c10 -22 -14 -67 -248 -475 -250 -435 -260 -451 -287 -448 -26 2 -48 36 -288
452 -237 410 -259 452 -248 472 l12 23 524 0 523 0 12 -24z m-3290 -491 c237
-410 258 -451 247 -472 l-12 -23 -524 0 -523 0 -11 23 c-10 21 12 64 196 383
341 590 313 546 342 542 22 -3 59 -61 285 -453z m1217 1 c237 -412 261 -457
249 -475 -13 -21 -18 -21 -539 -21 l-526 0 -10 22 c-8 18 30 89 251 474 237
412 263 453 287 454 23 0 48 -38 288 -454z m1217 1 c226 -392 259 -455 251
-474 l-10 -23 -526 0 c-517 0 -526 0 -539 20 -11 18 15 68 250 475 237 411
265 455 288 455 22 0 51 -46 286 -453z m1217 -1 c233 -403 258 -451 248 -472
l-11 -24 -522 0 c-514 0 -523 0 -536 20 -15 25 -45 -32 261 498 234 406 251
433 275 430 23 -3 58 -58 285 -452z m-4622 -559 c15 -21 6 -39 -245 -475 -257
-446 -261 -452 -291 -450 -28 3 -44 27 -288 449 -241 418 -257 449 -246 473
l12 26 521 0 521 -1 16 -22z m1217 -3 c11 -23 -6 -57 -246 -472 -242 -420
-260 -447 -287 -450 -30 -3 -34 5 -285 439 -140 243 -257 446 -259 452 -2 5 2
20 10 33 l12 24 522 0 522 0 11 -26z m1219 1 c10 -23 -9 -60 -247 -473 -253
-437 -259 -447 -289 -447 -31 0 -37 9 -290 449 -250 433 -259 450 -244 473
l15 23 522 0 521 0 12 -25z m1216 2 c14 -22 5 -41 -246 -476 -256 -442 -262
-452 -291 -449 -27 3 -46 34 -287 450 -240 415 -257 449 -246 472 l12 26 521
0 522 0 15 -23z m1217 -2 c12 -23 7 -36 -89 -202 -57 -98 -174 -301 -260 -450
-150 -262 -157 -273 -186 -272 -29 0 -39 15 -288 448 -241 420 -257 450 -246
475 l12 26 522 0 522 0 13 -25z m1218 0 c11 -24 -7 -59 -246 -473 -242 -419
-260 -447 -288 -450 -28 -3 -34 5 -284 439 -140 243 -257 446 -259 451 -2 6 2
21 10 34 l12 24 522 0 522 0 11 -25z m-6941 -497 c251 -434 260 -453 246 -475
l-15 -23 -523 0 -522 0 -11 25 c-12 25 35 109 470 858 33 57 43 67 67 67 26 0
43 -28 288 -452z m1097 209 c77 -133 193 -335 258 -448 111 -192 118 -208 107
-232 l-12 -27 -522 0 -522 0 -12 26 c-11 24 6 56 246 475 249 433 259 448 288
448 29 1 36 -10 169 -242z m1338 -209 c239 -414 257 -449 246 -473 l-11 -25
-522 0 -523 0 -14 23 c-15 21 -3 44 246 475 257 445 261 453 291 450 27 -3 45
-30 287 -450z m1218 0 c238 -413 257 -450 247 -473 l-12 -25 -525 0 -525 0
-11 25 c-11 22 12 64 249 475 255 442 261 451 289 448 27 -3 47 -34 288 -450z
m1217 0 c250 -433 260 -453 246 -475 l-15 -23 -523 0 -522 0 -11 25 c-11 23 7
59 229 443 133 229 250 432 261 450 14 23 27 32 47 32 25 0 45 -32 288 -452z
m1117 174 c88 -152 204 -354 258 -448 92 -159 98 -173 87 -198 l-12 -26 -522
0 -522 0 -12 26 c-11 25 5 55 246 475 250 434 259 448 288 448 29 0 36 -11
189 -277z m1318 -174 c238 -413 257 -449 246 -473 l-11 -25 -522 0 -523 0 -15
23 c-14 21 -2 44 247 475 256 445 262 453 290 450 28 -3 46 -31 288 -450z
m-7061 -562 c10 -22 -13 -67 -247 -473 -227 -393 -262 -448 -285 -451 -24 -3
-42 25 -284 445 -142 246 -260 451 -262 455 -2 4 2 16 9 28 13 20 20 20 536
20 l522 0 11 -24z m1220 1 c9 -20 -20 -76 -249 -472 -243 -420 -262 -450 -287
-450 -26 0 -45 30 -287 449 -231 399 -258 452 -249 473 l11 23 525 0 525 0 11
-23z m1217 2 c12 -18 -12 -63 -249 -475 -241 -417 -264 -454 -288 -454 -24 1
-49 41 -287 454 -243 424 -259 454 -246 474 l14 22 522 0 c516 0 521 0 534
-21z m1219 -1 c9 -20 -24 -82 -251 -475 -235 -407 -264 -453 -286 -453 -23 0
-51 44 -286 452 -229 397 -260 456 -251 475 l10 23 527 0 527 0 10 -22z m1214
-2 c10 -22 -14 -68 -248 -473 -227 -393 -262 -448 -284 -451 -25 -3 -42 24
-284 445 -142 246 -260 451 -262 455 -2 4 2 16 9 28 13 20 20 20 536 20 l522
0 11 -24z m1220 1 c9 -20 -21 -77 -250 -472 -242 -419 -261 -450 -287 -450
-25 0 -45 31 -286 449 -232 401 -259 451 -249 472 l11 24 525 0 525 0 11 -23z
m1217 2 c12 -18 -12 -64 -249 -475 -240 -414 -265 -454 -288 -454 -24 1 -51
43 -287 453 -246 427 -260 453 -246 475 l14 22 522 0 c516 0 521 0 534 -21z
m-8162 -491 c233 -403 259 -454 250 -475 l-11 -23 -526 0 -526 0 -10 23 c-10
20 19 75 250 475 236 408 264 452 287 452 23 0 50 -44 286 -452z m1220 -2
c243 -424 259 -454 246 -474 l-14 -22 -523 0 -522 0 -12 23 c-11 20 1 45 130
267 77 135 195 338 261 453 109 189 122 207 146 207 25 -1 48 -36 288 -454z
m1216 0 c239 -414 259 -451 247 -473 l-12 -23 -524 0 -523 0 -11 24 c-10 21
15 68 236 452 304 527 271 476 302 472 23 -3 58 -59 285 -452z m1217 0 c233
-402 258 -451 249 -472 l-11 -24 -526 0 -526 0 -10 23 c-10 19 21 78 250 475
250 435 261 452 288 450 25 -3 50 -42 286 -452z m1217 2 c232 -402 259 -454
250 -475 l-11 -23 -526 0 -526 0 -10 23 c-10 21 18 74 250 475 237 410 263
452 286 452 24 0 51 -43 287 -452z m1218 -1 c234 -406 258 -451 247 -473 l-11
-24 -523 0 -524 0 -12 23 c-13 24 -34 -15 431 790 74 127 82 138 107 135 23
-3 55 -53 285 -451z m1218 -1 c238 -412 258 -452 247 -473 l-12 -23 -524 0
-523 0 -11 24 c-10 22 14 67 241 463 139 241 258 444 263 451 6 7 21 12 35 10
21 -3 62 -68 284 -452z m1217 0 c231 -400 258 -452 248 -473 l-10 -23 -526 0
-526 0 -10 23 c-10 20 20 77 250 475 249 434 261 452 287 450 26 -3 51 -43
287 -452z m-8276 -559 c14 -22 4 -42 -247 -475 -253 -439 -262 -453 -289 -450
-26 3 -49 40 -287 450 -238 413 -257 450 -247 473 l12 25 521 0 522 0 15 -23z
m1219 1 c14 -22 0 -48 -246 -476 -256 -444 -262 -452 -291 -450 -27 3 -44 29
-287 450 -239 414 -257 449 -246 472 l11 26 522 0 523 0 14 -22z m1216 -3 c11
-24 -8 -60 -246 -473 -242 -418 -261 -447 -288 -450 -28 -2 -35 7 -290 450
-246 428 -260 454 -246 476 l14 22 523 0 522 0 11 -25z m1220 1 c9 -21 -16
-69 -250 -475 -242 -420 -262 -451 -287 -451 -25 0 -45 31 -288 452 -251 434
-260 453 -246 475 l15 23 523 0 522 0 11 -24z m1215 1 c14 -21 2 -44 -247
-475 -253 -439 -262 -453 -289 -450 -26 3 -49 38 -287 451 -236 408 -258 450
-248 472 l11 25 522 0 523 0 15 -23z m1219 1 c13 -20 -2 -50 -246 -475 -256
-445 -262 -453 -291 -450 -28 2 -44 27 -287 449 -241 416 -258 448 -247 472
l12 26 522 0 523 0 14 -22z m1216 -3 c11 -23 -9 -61 -247 -473 -240 -416 -260
-447 -287 -450 -28 -2 -36 9 -290 450 -247 430 -260 454 -246 476 l14 22 523
0 522 0 11 -25z m1218 0 c11 -22 -11 -64 -247 -472 -251 -434 -260 -448 -289
-448 -29 0 -38 14 -289 449 -249 433 -259 450 -244 473 l15 23 522 0 521 0 11
-25z m-9378 -492 c242 -420 260 -454 249 -477 l-12 -26 -521 0 -522 0 -15 24
c-15 23 -8 37 243 472 230 398 262 450 287 455 15 3 29 5 29 5 1 -1 119 -204
262 -453z m1218 -1 c227 -394 256 -448 248 -471 l-9 -26 -525 -2 -525 -3 -12
26 c-11 24 4 54 249 478 254 439 262 452 289 448 25 -4 53 -49 285 -450z
m2442 -13 c238 -412 251 -437 239 -462 l-12 -27 -525 3 -525 2 -8 25 c-8 22
23 82 249 472 225 391 261 447 283 450 15 2 31 -4 37 -12 6 -8 124 -211 262
-451z m1210 13 c256 -444 261 -454 246 -478 l-16 -24 -518 0 -518 0 -15 24
c-15 23 -8 37 246 477 239 416 263 454 287 454 24 0 48 -38 288 -453z m1217 0
c227 -393 256 -449 249 -471 l-9 -26 -525 -2 -525 -3 -12 26 c-11 25 4 54 249
478 253 440 261 452 288 448 25 -4 54 -48 285 -450z m2443 -13 c237 -411 251
-438 239 -463 l-12 -26 -525 3 -525 2 -8 25 c-8 23 22 80 248 472 227 393 262
447 284 450 15 2 31 -4 37 -12 6 -8 124 -211 262 -451z m1210 13 c256 -443
261 -454 246 -478 l-16 -24 -522 0 -521 0 -12 25 c-10 23 10 61 250 477 239
414 263 453 287 453 24 0 48 -39 288 -453z m-7305 1 c244 -423 257 -448 246
-475 l-11 -28 -523 0 -522 0 -12 26 c-11 24 -6 37 61 153 40 70 156 271 258
449 178 309 186 321 215 322 29 0 38 -14 288 -447z m4870 0 c243 -422 257
-449 246 -475 l-11 -28 -523 0 -522 0 -12 27 c-11 24 -5 38 90 202 55 97 172
299 258 448 150 261 157 273 186 273 29 0 38 -14 288 -447z m-7059 -557 c15
-24 10 -34 -246 -478 -242 -420 -263 -453 -288 -453 -25 0 -46 33 -288 453
-257 444 -262 453 -246 477 l16 25 518 0 518 0 16 -24z m1220 -7 c8 -23 -21
-77 -250 -474 -238 -412 -261 -448 -286 -449 -26 -2 -43 25 -287 449 -247 428
-260 453 -248 478 l12 27 525 -3 525 -2 9 -26z m1215 3 c11 -26 -3 -53 -248
-477 -241 -418 -261 -449 -287 -449 -25 0 -44 31 -286 449 -245 425 -258 450
-247 477 l11 28 523 0 523 0 11 -28z m1218 1 c12 -25 -2 -51 -248 -477 -244
-422 -262 -452 -287 -450 -25 1 -49 39 -284 445 -142 244 -258 450 -258 457 0
7 6 21 12 32 13 20 25 20 533 20 l520 0 12 -27z m1217 3 c15 -24 9 -35 -246
-478 -242 -420 -263 -453 -288 -453 -25 0 -46 33 -289 453 -257 446 -261 453
-245 477 l16 25 518 0 518 0 16 -24z m1216 -5 c11 -27 0 -48 -247 -476 -237
-412 -261 -448 -285 -449 -26 -2 -43 25 -288 449 -247 428 -259 453 -247 478
l12 27 521 0 522 0 12 -29z m1218 3 c15 -31 45 28 -259 -499 -233 -404 -250
-431 -275 -430 -25 2 -49 39 -286 450 -246 426 -258 450 -247 477 l11 28 523
0 522 0 11 -26z m1219 0 c12 -25 -3 -53 -248 -478 -239 -413 -263 -451 -287
-452 -25 -1 -44 29 -277 433 -137 239 -254 443 -259 453 -6 13 -5 29 2 45 l12
25 522 0 523 0 12 -26z m1216 2 c16 -24 10 -36 -246 -478 -241 -419 -263 -453
-288 -453 -25 0 -46 34 -288 453 -258 446 -261 452 -245 477 l16 25 518 0 518
0 15 -24z m-9376 -497 c234 -406 259 -454 249 -475 l-11 -24 -526 0 -526 0
-10 23 c-10 21 18 73 250 475 240 416 262 452 287 452 24 0 47 -36 287 -451z
m1219 -2 c246 -427 260 -453 246 -474 l-14 -23 -522 0 -523 0 -12 23 c-13 24
10 65 471 860 33 57 43 67 66 67 25 0 46 -33 288 -453z m1217 -1 c240 -416
258 -450 246 -472 l-12 -24 -524 0 -523 0 -11 24 c-10 22 13 66 241 463 139
241 257 444 263 451 6 7 22 12 35 10 22 -3 60 -63 285 -452z m1215 3 c235
-407 260 -453 250 -475 l-11 -24 -522 0 -523 0 -14 23 c-14 21 -2 45 246 474
241 418 263 453 288 453 24 0 46 -34 286 -451z m1219 -1 c249 -432 260 -453
246 -475 l-15 -23 -523 0 -522 0 -10 23 c-10 21 17 73 249 475 240 415 263
452 287 452 24 0 48 -37 288 -452z m1219 -2 c244 -424 259 -454 246 -474 l-14
-22 -523 0 -522 0 -12 23 c-12 23 47 131 471 860 33 57 43 67 66 67 25 -1 46
-33 288 -454z m1216 0 c241 -416 259 -451 247 -472 l-12 -24 -524 0 -523 0
-12 24 c-10 22 14 67 248 475 253 440 260 451 288 448 27 -2 46 -31 288 -451z
m1216 3 c234 -405 259 -454 250 -475 l-11 -24 -526 0 -526 0 -11 23 c-9 21 19
74 250 475 240 416 263 452 287 452 25 0 47 -36 287 -451z m-8272 -562 c9 -21
-19 -74 -250 -475 -240 -416 -263 -452 -287 -452 -25 0 -47 36 -287 451 -234
405 -259 454 -250 475 l11 24 526 0 526 0 11 -23z m1216 -1 c10 -22 -14 -67
-248 -475 -253 -440 -260 -451 -288 -448 -27 2 -46 31 -288 451 -241 416 -259
451 -247 472 l12 24 524 0 523 0 12 -24z m1217 1 c11 -22 -8 -59 -247 -473
-242 -418 -261 -449 -288 -452 -28 -2 -36 10 -290 451 -244 425 -259 455 -246
475 l14 22 523 0 522 0 12 -23z m1219 -1 c9 -20 -18 -71 -249 -472 -235 -408
-261 -449 -286 -452 -27 -3 -38 15 -289 450 -250 432 -261 453 -247 475 l15
23 523 0 522 0 11 -24z m1214 2 c14 -22 2 -46 -246 -475 -241 -418 -263 -453
-288 -453 -24 0 -46 34 -286 451 -235 407 -260 453 -250 475 l11 24 522 0 523
0 14 -22z m1219 -2 c10 -22 -13 -67 -247 -473 -248 -429 -261 -448 -288 -448
-28 0 -41 19 -289 449 -240 416 -258 450 -246 472 l12 24 524 0 523 0 11 -24z
m1218 1 c11 -21 -9 -60 -247 -473 -241 -417 -262 -449 -288 -452 -28 -2 -36
10 -290 450 -246 428 -260 454 -246 476 l14 22 522 0 523 0 12 -23z m1218 0
c10 -21 -17 -73 -248 -473 -236 -409 -262 -449 -287 -452 -27 -3 -37 14 -288
449 -234 406 -260 454 -250 475 l11 24 526 0 526 0 10 -23z m-9378 -495 c258
-446 261 -452 245 -477 l-16 -25 -518 0 -518 0 -15 24 c-16 24 -10 36 246 478
241 419 263 453 288 453 25 0 46 -34 288 -453z m1215 5 c231 -401 258 -452
250 -476 l-9 -26 -525 -2 -525 -3 -12 26 c-12 25 3 53 248 478 239 413 263
451 287 452 25 1 45 -30 286 -449z m1218 -2 c247 -426 259 -450 247 -477 l-11
-28 -523 0 -522 0 -11 26 c-15 31 -45 -28 259 499 233 403 250 431 275 430 25
-2 49 -40 286 -450z m1218 -1 c247 -427 259 -452 247 -477 l-12 -27 -521 0
-522 0 -12 29 c-11 28 -1 47 235 457 136 236 253 438 260 449 7 12 23 20 39
20 24 0 47 -36 286 -451z m1219 -2 c257 -446 261 -453 245 -477 l-16 -25 -518
0 -518 0 -16 24 c-15 24 -9 35 246 478 242 420 263 453 288 453 25 0 46 -33
289 -453z m1213 7 c142 -244 257 -451 257 -459 0 -8 -6 -23 -13 -32 -12 -17
-50 -18 -532 -18 l-519 0 -12 27 c-12 25 2 51 248 477 244 422 262 452 287
450 25 -1 49 -39 284 -445z m1220 -4 c245 -425 258 -450 247 -477 l-11 -28
-523 0 -523 0 -11 28 c-11 26 -3 43 130 272 77 135 194 337 260 450 109 190
120 206 145 205 25 -2 48 -39 286 -450z m1218 -1 c246 -427 259 -452 247 -477
l-12 -27 -525 3 -525 2 -9 26 c-8 23 20 75 239 455 136 236 253 438 260 449 7
12 23 20 38 20 24 0 48 -37 287 -451z m1218 -2 c257 -444 262 -453 246 -477
l-16 -25 -518 0 -518 0 -16 24 c-15 24 -10 34 246 478 242 420 263 453 288
453 25 0 46 -33 288 -453z m-9491 -557 c10 -23 -10 -61 -250 -477 -239 -414
-263 -453 -287 -453 -24 0 -48 39 -288 453 -256 443 -261 454 -246 478 l16 24
522 0 521 0 12 -25z m1216 -5 c8 -23 -22 -80 -248 -472 -231 -400 -261 -447
-285 -450 -27 -4 -36 10 -289 447 -246 426 -260 454 -248 479 l12 26 525 -3
525 -2 8 -25z m1216 3 c11 -24 5 -38 -90 -202 -55 -97 -172 -299 -258 -448
-150 -261 -157 -273 -186 -273 -29 0 -38 14 -288 447 -243 422 -257 449 -246
475 l11 28 523 0 522 0 12 -27z m1218 1 c11 -25 -4 -54 -249 -478 -253 -440
-261 -452 -288 -448 -25 4 -54 48 -284 448 -141 244 -256 448 -256 454 0 6 5
20 10 31 10 18 27 19 533 19 l522 0 12 -26z m1216 2 c15 -23 8 -37 -246 -477
-239 -416 -263 -454 -287 -454 -24 0 -48 38 -288 453 -256 444 -261 454 -246
478 l16 24 518 0 518 0 15 -24z m1220 -6 c8 -22 -23 -82 -249 -472 -230 -399
-260 -447 -285 -450 -26 -4 -36 10 -288 447 -247 427 -260 453 -248 478 l12
27 525 -3 525 -2 8 -25z m1216 4 c11 -24 6 -37 -61 -153 -40 -70 -156 -271
-258 -449 -178 -309 -186 -321 -215 -322 -29 0 -38 14 -288 447 -244 423 -257
448 -246 475 l11 28 523 0 522 0 12 -26z m1218 0 c11 -24 -4 -55 -249 -478
-254 -439 -262 -452 -289 -448 -25 4 -53 48 -283 447 -141 244 -256 449 -256
455 0 6 5 20 10 31 10 18 27 19 533 19 l522 0 12 -26z m1216 2 c15 -23 8 -37
-243 -472 -231 -400 -262 -450 -288 -455 -28 -6 -30 -1 -289 447 -243 421
-261 455 -250 478 l12 26 521 0 522 0 15 -24z m-9374 -500 c249 -433 259 -450
244 -473 l-15 -23 -522 0 -521 0 -11 25 c-11 22 12 64 249 475 253 439 261
451 289 448 26 -3 48 -38 287 -452z m1217 1 c247 -429 260 -453 246 -474 l-14
-23 -523 0 -522 0 -11 25 c-11 23 7 59 229 443 133 229 250 432 261 450 14 23
27 32 46 32 25 0 47 -35 288 -453z m1216 1 c241 -416 258 -448 247 -472 l-12
-26 -522 0 -523 0 -14 22 c-13 20 2 50 246 475 256 445 262 453 291 450 28 -2
44 -27 287 -449z m1218 -1 c236 -408 258 -450 248 -472 l-11 -25 -522 0 -523
0 -15 23 c-14 21 -2 44 247 475 253 439 262 453 289 450 26 -3 49 -38 287
-451z m1217 1 c251 -434 260 -453 246 -475 l-15 -23 -523 0 -522 0 -11 24 c-9
21 16 69 250 475 242 420 262 451 287 451 25 0 45 -31 288 -452z m1219 -1
c246 -427 260 -453 246 -474 l-14 -23 -523 0 -522 0 -11 25 c-11 24 6 56 214
418 314 543 291 507 322 507 25 0 47 -35 288 -453z m1216 1 c239 -414 257
-449 246 -472 l-11 -26 -522 0 -523 0 -14 23 c-14 21 0 47 246 475 256 444
262 452 291 450 27 -3 44 -29 287 -450z m1218 0 c238 -413 257 -450 247 -473
l-12 -25 -521 0 -522 0 -15 23 c-14 22 -4 42 247 475 253 439 262 453 289 450
26 -3 49 -40 287 -450z m-8275 -561 c10 -20 -20 -77 -250 -475 -249 -434 -261
-452 -287 -450 -26 3 -51 43 -287 452 -231 400 -258 452 -248 473 l10 23 526
0 526 0 10 -23z m1216 -1 c10 -22 -14 -68 -248 -473 -245 -424 -260 -448 -287
-448 -27 0 -42 24 -288 449 -238 413 -258 452 -247 473 l12 23 524 0 523 0 11
-24z m1218 1 c11 -21 -10 -61 -248 -472 -245 -425 -261 -450 -288 -450 -26 0
-42 24 -287 448 -234 406 -258 451 -247 473 l11 24 523 0 524 0 12 -23z m1218
0 c10 -21 -18 -74 -250 -475 -237 -410 -263 -452 -286 -452 -24 0 -51 43 -287
452 -232 402 -259 454 -250 475 l11 23 526 0 526 0 10 -23z m1218 0 c10 -19
-21 -78 -250 -475 -250 -435 -261 -452 -288 -450 -25 3 -50 42 -286 452 -233
402 -258 451 -249 472 l11 24 526 0 526 0 10 -23z m1216 -1 c10 -21 -16 -70
-248 -472 -245 -425 -261 -449 -287 -449 -27 0 -43 24 -288 449 -239 414 -259
451 -247 473 l12 23 524 0 523 0 11 -24z m1218 1 c11 -20 -11 -62 -248 -472
-240 -415 -262 -450 -288 -452 -27 -3 -37 13 -287 448 -234 408 -258 453 -248
475 l12 24 523 0 524 0 12 -23z m1218 0 c10 -20 -19 -75 -250 -475 -236 -408
-264 -452 -287 -452 -23 0 -50 44 -286 452 -233 403 -259 454 -250 475 l11 23
526 0 526 0 10 -23z m-8161 -490 c246 -427 260 -453 246 -474 l-14 -23 -522 0
c-516 0 -521 0 -534 21 -12 18 12 64 249 475 240 414 265 454 288 454 24 -1
51 -43 287 -453z m1216 -1 c232 -401 259 -451 249 -472 l-11 -24 -525 0 -525
0 -11 23 c-11 24 -24 -1 433 790 73 125 83 138 106 135 22 -3 58 -61 284 -452z
m1214 7 c141 -247 259 -451 261 -455 2 -4 -2 -16 -9 -28 -13 -20 -20 -20 -536
-20 l-522 0 -11 24 c-10 22 14 67 241 463 139 241 257 444 263 451 5 6 20 12
32 12 20 0 60 -65 281 -447z m1220 -5 c229 -397 260 -456 251 -475 l-10 -23
-527 0 -527 0 -10 23 c-9 19 24 81 251 474 235 407 264 453 286 453 23 0 51
-44 286 -452z m1220 -2 c243 -424 259 -454 246 -474 l-14 -22 -522 0 c-516 0
-521 0 -534 21 -12 18 12 63 249 475 241 417 264 454 288 454 24 -1 49 -41
287 -454z m1216 0 c231 -399 258 -452 249 -473 l-11 -23 -525 0 -525 0 -11 23
c-10 23 23 85 473 860 66 114 50 133 350 -387z m1213 7 c142 -247 260 -451
262 -455 2 -4 -2 -16 -9 -28 -13 -20 -20 -20 -536 -20 l-522 0 -11 24 c-10 22
13 66 241 463 139 241 257 444 263 451 5 6 20 12 32 12 19 0 61 -67 280 -447z
m-7052 -566 c14 -21 2 -44 -247 -475 -256 -445 -262 -453 -290 -450 -28 3 -46
31 -288 450 -238 413 -257 449 -246 473 l11 25 522 0 523 0 15 -23z m1216 -3
c11 -25 -5 -55 -246 -475 -250 -434 -259 -448 -288 -448 -29 0 -36 11 -189
277 -88 152 -204 354 -258 448 -92 159 -98 173 -87 198 l12 26 522 0 522 0 12
-26z m1219 1 c11 -23 -9 -61 -247 -473 -240 -416 -260 -447 -287 -450 -29 -3
-35 7 -291 450 -250 433 -260 453 -246 475 l15 23 523 0 522 0 11 -25z m1218
0 c11 -22 -11 -64 -247 -472 -252 -437 -259 -448 -289 -448 -30 0 -37 11 -290
447 -238 413 -257 450 -247 473 l12 25 525 0 525 0 11 -25z m1216 2 c15 -21 3
-44 -246 -475 -257 -445 -261 -453 -291 -450 -27 3 -45 30 -287 450 -239 414
-257 449 -246 473 l11 25 522 0 523 0 14 -23z m1217 -3 c11 -24 -6 -56 -246
-475 -249 -433 -259 -448 -288 -448 -29 -1 -36 10 -169 242 -77 133 -193 335
-258 448 -111 192 -118 208 -107 232 l12 27 522 0 522 0 12 -26z m1219 1 c10
-23 -10 -62 -247 -472 -241 -417 -261 -448 -288 -451 -28 -3 -34 6 -290 449
-251 435 -260 454 -246 476 l15 23 523 0 522 0 11 -25z m-6948 -486 c140 -243
257 -446 259 -451 2 -6 -2 -21 -10 -34 l-12 -24 -522 0 -522 0 -11 26 c-11 23
6 57 234 452 135 235 253 437 260 450 9 14 24 22 42 22 25 0 44 -29 282 -441z
m1223 -8 c241 -420 257 -450 246 -475 l-12 -26 -522 0 -522 0 -13 25 c-12 23
-7 36 89 202 57 98 174 301 260 450 150 262 157 273 186 272 29 0 39 -15 288
-448z m1218 -3 c240 -415 257 -449 246 -472 l-12 -26 -521 0 -522 0 -15 23
c-14 22 -5 41 246 476 256 442 262 452 291 449 27 -3 46 -34 287 -450z m1218
-2 c250 -433 259 -450 244 -473 l-15 -23 -522 0 -521 0 -12 25 c-10 23 4 51
169 338 377 653 337 588 369 585 28 -3 47 -33 288 -452z m1211 12 c140 -242
257 -445 259 -451 2 -5 -2 -20 -10 -33 l-12 -24 -522 0 -522 0 -11 26 c-11 23
6 56 234 452 301 522 269 472 302 472 25 0 44 -30 282 -442z m1223 -9 c241
-418 257 -449 246 -473 l-12 -26 -521 0 -521 1 -16 22 c-15 21 -6 39 245 475
257 446 261 452 291 450 28 -3 44 -27 288 -449z m-4625 -559 c15 -25 45 32
-261 -498 -234 -406 -251 -433 -275 -430 -23 3 -58 58 -285 452 -233 403 -258
451 -248 472 l11 24 522 0 c514 0 523 0 536 -20z m1220 0 c11 -18 -15 -68
-250 -475 -237 -411 -265 -455 -288 -455 -22 0 -51 46 -286 453 -226 392 -259
455 -251 475 l10 22 526 0 c517 0 526 0 539 -20z m1219 -2 c8 -18 -30 -89
-251 -474 -237 -412 -263 -453 -287 -454 -23 0 -48 38 -288 454 -237 412 -261
457 -249 475 13 21 18 21 539 21 l526 0 10 -22z m1214 -1 c10 -21 -18 -73
-249 -473 -243 -421 -261 -449 -287 -449 -25 0 -43 28 -287 450 -237 410 -258
451 -247 472 l12 23 524 0 523 0 11 -23z m-3290 -492 c237 -410 259 -452 248
-472 l-12 -23 -524 0 -523 0 -12 24 c-10 22 14 67 248 475 250 435 260 451
287 448 26 -2 48 -36 288 -452z m1216 3 c230 -399 260 -455 250 -475 l-10 -23
-527 0 -527 0 -10 23 c-9 19 22 79 251 475 237 410 263 452 287 452 23 0 49
-42 286 -452z m1219 -1 c246 -427 260 -453 246 -474 l-14 -23 -522 0 c-514 0
-521 0 -534 20 -7 12 -11 24 -9 28 2 4 120 208 262 455 237 413 259 447 284
447 24 0 47 -37 287 -453z"/>
</g>
</svg>
